<?xml version="1.0" encoding="utf-8"?>
<!-- Generator: Adobe Illustrator 26.5.0, SVG Export Plug-In . SVG Version: 6.00 Build 0)  -->
<svg version="1.1" id="uuid-ad32af78-9062-4848-89eb-45e4066cfe2f"
	 xmlns="http://www.w3.org/2000/svg" xmlns:xlink="http://www.w3.org/1999/xlink" x="0px" y="0px" viewBox="0 0 550.5 55.3"
	 style="enable-background:new 0 0 550.5 55.3;" xml:space="preserve">
<style type="text/css">
	.st0{fill:#FF9A00;}
	.st1{opacity:0.61;fill:#FF7400;enable-background:new    ;}
	.st2{fill:#FFC100;}
	.st3{fill:#0F0F0F;}
</style>
<path class="st0" d="M86.7,18.2l-9.7,6.4l-2.5,1.6l-3,2l-8,5.2c-1.1,0.7-2.3,1-3.5,1c-2.1,0-4.1-1-5.3-2.9c-0.7-1-1-2.2-1-3.3v-0.1
	c0-1.8,0.7-3.5,2.1-4.8c0.2-0.2,0.5-0.4,0.7-0.5l8.9-5.8l14.4-9.4c2.9-1.9,6.8-1.1,8.7,1.8C90.4,12.4,89.6,16.3,86.7,18.2z"/>
<path class="st1" d="M77.5,35.4l-5.4,8.3L56.5,33.5c-1.9-1.2-2.9-3.2-2.9-5.3v-0.1c0-1.8,0.7-3.5,2.1-4.8l7.2-4.7l11.5,7.5l0.1,0
	l-3,2l-2.5,1.6L77.5,35.4L77.5,35.4z"/>
<path class="st2" d="M88.5,46.9c-1.9,2.9-5.8,3.7-8.7,1.8l-6.7-4.4l-0.9-0.6L56.5,33.5c-1.9-1.2-2.9-3.2-2.9-5.3v-0.1
	c0-1.1,0.3-2.3,1-3.3c1.2-1.9,3.2-2.9,5.3-2.9c1.2,0,2.4,0.3,3.4,1l8,5.2l0.1,0l8.5,5.6l6.7,4.4C89.6,40,90.4,43.9,88.5,46.9
	L88.5,46.9z"/>
<path class="st3" d="M1,53.8c-0.7-0.7-1-1.6-1-2.6v-47c0-1.1,0.3-1.9,1-2.6c0.7-0.7,1.6-1,2.6-1h16.6c3.1,0,5.9,0.6,8.3,1.8
	c2.4,1.2,4.3,2.9,5.7,5.1c1.4,2.2,2,4.7,2,7.5c0,2.3-0.6,4.3-1.8,6.1c-1.2,1.8-2.9,3.3-5,4.4c3.1,0.7,5.6,2.2,7.4,4.4
	c1.8,2.2,2.7,5,2.7,8.5c0,3.2-0.8,6-2.3,8.5c-1.5,2.5-3.6,4.4-6.3,5.8c-2.7,1.4-5.8,2.1-9.2,2.1H3.6C2.6,54.8,1.7,54.5,1,53.8
	L1,53.8z M20.2,22.9c2.7,0,4.9-0.7,6.6-2c1.6-1.3,2.5-3.3,2.5-5.8s-0.8-4.5-2.5-5.8c-1.6-1.3-3.8-2-6.6-2h-13v15.6L20.2,22.9
	L20.2,22.9z M21.7,48.2c3.2,0,5.9-0.8,7.9-2.5c2-1.7,3-4.1,3-7.2c0-2.9-1-5.1-3-6.6c-2-1.5-4.6-2.3-7.9-2.3H7.2v18.6H21.7z"/>
<path class="st3" d="M162,53.2c-1.6-1.1-2.8-2.6-3.7-4.6c-0.9-2-1.3-4.2-1.3-6.6V4.1c0-1,0.3-1.9,1-2.5c0.6-0.6,1.5-1,2.5-1
	c1,0,1.9,0.3,2.5,1c0.6,0.6,1,1.5,1,2.5V42c0,1.7,0.3,3.1,1,4.2c0.6,1.1,1.5,1.7,2.5,1.7h1.7c0.9,0,1.7,0.3,2.3,1
	c0.6,0.6,0.9,1.5,0.9,2.5c0,1-0.4,1.9-1.3,2.5c-0.9,0.6-2,1-3.4,1h-0.1C165.4,54.8,163.6,54.3,162,53.2L162,53.2z"/>
<path class="st3" d="M210.3,37.4c-0.6,0.6-1.4,0.9-2.3,0.9h-26.4c0.5,3.2,2,5.9,4.4,7.9c2.4,2,5.4,3,8.9,3c1.4,0,2.8-0.3,4.3-0.8
	c1.5-0.5,2.7-1.1,3.7-1.9c0.6-0.5,1.4-0.8,2.3-0.8c0.9,0,1.6,0.2,2.1,0.7c0.8,0.7,1.3,1.5,1.3,2.4c0,0.8-0.4,1.5-1.1,2.1
	c-1.6,1.3-3.5,2.3-5.9,3.1c-2.3,0.8-4.6,1.2-6.7,1.2c-3.8,0-7.2-0.8-10.2-2.5c-3-1.6-5.4-3.9-7.1-6.8c-1.7-2.9-2.5-6.2-2.5-9.9
	c0-3.7,0.8-7,2.4-10c1.6-2.9,3.8-5.2,6.7-6.9c2.8-1.6,6.1-2.5,9.7-2.5c3.6,0,6.6,0.8,9.2,2.4c2.6,1.6,4.6,3.8,6,6.6
	c1.4,2.8,2.1,6.1,2.1,9.7C211.2,36.1,210.9,36.9,210.3,37.4L210.3,37.4z M185.7,25.3c-2.1,1.9-3.4,4.3-4,7.4h23.1
	c-0.4-3.1-1.6-5.6-3.5-7.4c-1.9-1.9-4.4-2.8-7.4-2.8C190.5,22.5,187.8,23.5,185.7,25.3L185.7,25.3z"/>
<path class="st3" d="M245.8,19.1c2.9,1.7,5.2,4,6.9,6.9c1.7,2.9,2.5,6.2,2.5,9.8v15.5c0,1-0.3,1.9-1,2.5c-0.7,0.7-1.5,1-2.5,1
	c-1,0-1.9-0.3-2.5-1c-0.7-0.7-1-1.5-1-2.5v-2.6c-1.6,2-3.6,3.5-5.9,4.7c-2.3,1.1-4.8,1.7-7.5,1.7c-3.3,0-6.4-0.8-9.1-2.5
	c-2.7-1.7-4.8-4-6.4-6.9c-1.6-2.9-2.3-6.2-2.3-9.8s0.8-6.9,2.5-9.8c1.7-2.9,4-5.3,6.9-6.9c2.9-1.7,6.2-2.5,9.8-2.5
	S242.9,17.4,245.8,19.1L245.8,19.1z M242.4,47.2c1.9-1.1,3.3-2.7,4.4-4.7c1.1-2,1.6-4.2,1.6-6.6c0-2.5-0.5-4.7-1.6-6.7
	c-1.1-2-2.5-3.6-4.4-4.7c-1.9-1.1-4-1.7-6.3-1.7s-4.4,0.6-6.3,1.7c-1.9,1.1-3.4,2.7-4.4,4.7c-1.1,2-1.6,4.2-1.6,6.7
	c0,2.5,0.5,4.7,1.6,6.6c1.1,2,2.6,3.5,4.4,4.7c1.9,1.1,4,1.7,6.3,1.7S240.5,48.3,242.4,47.2L242.4,47.2z"/>
<path class="st3" d="M293.8,18.9c2.5,1.4,4.5,3.4,6,6.1c1.4,2.7,2.2,5.9,2.2,9.6v17.1c0,1-0.3,1.9-1,2.5c-0.7,0.7-1.5,1-2.5,1
	c-1,0-1.9-0.3-2.5-1c-0.7-0.7-1-1.5-1-2.5V34.6c0-3.8-1-6.6-3-8.5c-2-1.9-4.7-2.9-8-2.9c-1.9,0-3.7,0.4-5.3,1.2
	c-1.6,0.8-2.8,1.9-3.8,3.2c-0.9,1.3-1.4,2.8-1.4,4.5v19.6c0,1-0.3,1.9-1,2.5c-0.6,0.7-1.5,1-2.6,1c-1,0-1.9-0.3-2.5-1
	c-0.7-0.7-1-1.5-1-2.5v-31c0-1.1,0.3-1.9,1-2.6c0.7-0.6,1.5-1,2.5-1c1.1,0,1.9,0.3,2.6,1c0.6,0.6,1,1.5,1,2.6v0.8
	c1.5-1.5,3.2-2.6,5.3-3.4c2-0.8,4.2-1.2,6.5-1.2C288.4,16.8,291.3,17.5,293.8,18.9z"/>
<g>
	<path class="st0" d="M330.8,52.5c-3.4-1.9-5.8-4.4-7.3-7.6c-0.2-0.3-0.3-0.7-0.3-1.1c0-0.6,0.2-1.2,0.7-1.6c0.5-0.4,1.1-0.7,2-0.7
		c0.6,0,1.1,0.2,1.6,0.4c0.5,0.3,0.8,0.7,1.1,1.3c1.1,2.1,2.8,3.7,5.3,5c2.5,1.3,5.3,1.9,8.6,1.9c3.8,0,6.8-0.9,9.1-2.7
		c2.3-1.8,3.5-4.4,3.5-7.6c0-2.9-1.1-5.3-3.2-7.3c-2.1-2-5.4-3.2-9.6-3.8c-5.3-0.6-9.5-2.3-12.6-5c-3.1-2.7-4.6-6-4.6-9.9
		c0-2.8,0.7-5.2,2.2-7.3c1.5-2.1,3.6-3.7,6.2-4.8c2.6-1.1,5.7-1.7,9-1.7c3.6,0,6.8,0.8,9.6,2.4c2.8,1.6,4.9,3.7,6.5,6.3
		c0.3,0.5,0.5,1.1,0.5,1.7c0,0.9-0.4,1.6-1.2,2.1c-0.4,0.2-0.8,0.3-1.2,0.3c-0.5,0-1-0.1-1.4-0.4c-0.4-0.3-0.8-0.6-1.1-1.1
		c-2.6-4.1-6.5-6.1-11.7-6.1c-3.7,0-6.7,0.8-8.8,2.3c-2.2,1.6-3.2,3.8-3.2,6.7c0,5.4,4.4,8.7,13.1,9.8c5.7,0.8,10,2.6,12.8,5.2
		c2.8,2.7,4.2,6.2,4.2,10.6c0,3.2-0.8,6-2.3,8.4c-1.6,2.3-3.7,4.1-6.4,5.4c-2.7,1.2-5.8,1.8-9.1,1.8C338,55.3,334.2,54.4,330.8,52.5
		L330.8,52.5z"/>
	<path class="st0" d="M389.3,50.1c0.5,0.5,0.7,1.2,0.7,1.9c0,0.7-0.3,1.4-0.8,1.9c-0.6,0.5-1.2,0.8-2.1,0.8h-1.5
		c-2.4,0-4.6-0.6-6.6-1.8c-1.9-1.2-3.4-2.8-4.5-4.8c-1.1-2-1.6-4.3-1.6-6.8V22.9h-4.5c-0.7,0-1.3-0.2-1.8-0.7
		c-0.4-0.4-0.7-1-0.7-1.6c0-0.7,0.2-1.3,0.7-1.7c0.4-0.4,1-0.7,1.8-0.7h4.5V7.5c0-0.8,0.2-1.4,0.7-1.9c0.5-0.5,1.1-0.8,1.9-0.8
		c0.8,0,1.4,0.3,1.9,0.8c0.5,0.5,0.8,1.2,0.8,1.9v10.7h7.8c0.7,0,1.3,0.2,1.8,0.7c0.4,0.4,0.7,1,0.7,1.7c0,0.6-0.2,1.2-0.7,1.6
		c-0.4,0.4-1,0.7-1.8,0.7h-7.8v18.4c0,2.3,0.7,4.3,2.1,5.8c1.4,1.5,3.2,2.2,5.3,2.2h1.9C388.2,49.3,388.8,49.6,389.3,50.1z"/>
	<path class="st0" d="M432.2,17.6c0.5,0.5,0.8,1.1,0.8,1.9v32.5c0,0.8-0.3,1.4-0.8,1.9c-0.5,0.5-1.2,0.8-1.9,0.8
		c-0.8,0-1.4-0.3-1.9-0.8c-0.5-0.5-0.7-1.2-0.7-1.9v-2.3c-1.5,1.7-3.4,3-5.5,4c-2.2,1-4.5,1.5-7,1.5c-3.3,0-6.2-0.7-8.8-2.1
		c-2.6-1.4-4.6-3.4-6.1-6c-1.5-2.6-2.2-5.8-2.2-9.5v-18c0-0.7,0.3-1.4,0.8-1.9c0.5-0.5,1.1-0.8,1.9-0.8c0.8,0,1.4,0.3,1.9,0.8
		c0.5,0.5,0.8,1.1,0.8,1.9v18c0,4.1,1.1,7.2,3.4,9.4s5.3,3.2,8.9,3.2c2.3,0,4.3-0.4,6.1-1.3c1.8-0.9,3.3-2.1,4.3-3.6
		c1.1-1.5,1.6-3.3,1.6-5.1V19.5c0-0.8,0.2-1.4,0.7-1.9c0.5-0.5,1.1-0.7,1.9-0.7C431,16.9,431.7,17.1,432.2,17.6L432.2,17.6z"/>
	<path class="st0" d="M481.8,19.5v16.2c0,3.6-0.8,6.9-2.5,9.8c-1.7,2.9-4,5.3-6.9,6.9c-2.9,1.7-6.2,2.5-9.8,2.5s-6.8-0.8-9.8-2.5
		c-2.9-1.7-5.2-4-6.9-6.9c-1.7-2.9-2.5-6.2-2.5-9.8s0.8-6.8,2.5-9.8c1.6-2.9,3.9-5.2,6.7-6.9c2.8-1.7,6-2.5,9.5-2.5
		c3,0,5.7,0.6,8.2,1.9c2.5,1.3,4.5,3,6.1,5.2V3.4c0-0.8,0.3-1.4,0.8-1.9c0.5-0.5,1.1-0.8,1.9-0.8c0.8,0,1.4,0.3,1.9,0.8
		c0.5,0.5,0.7,1.2,0.7,1.9v15.5C481.7,19,481.8,19.2,481.8,19.5L481.8,19.5z M469.7,48.2c2.1-1.3,3.8-3,5-5.2
		c1.2-2.2,1.8-4.6,1.8-7.4c0-0.8,0-1.4-0.1-1.7c0-0.1-0.1-0.2-0.1-0.3c-0.5-3.6-2-6.5-4.5-8.8c-2.6-2.3-5.7-3.5-9.3-3.5
		c-2.6,0-5,0.6-7.1,1.9s-3.8,3-5,5.1c-1.2,2.2-1.8,4.6-1.8,7.4s0.6,5.2,1.8,7.4c1.2,2.2,2.9,3.9,5,5.2c2.1,1.3,4.5,1.9,7.1,1.9
		S467.6,49.5,469.7,48.2L469.7,48.2z"/>
	<path class="st0" d="M495.3,8.6c-0.7-0.7-1.1-1.6-1.1-2.7c0-1.1,0.4-2,1.1-2.7c0.7-0.7,1.6-1,2.7-1c1,0,1.9,0.3,2.6,1
		s1.1,1.6,1.1,2.7c0,1.1-0.4,2-1.1,2.7c-0.7,0.7-1.6,1.1-2.7,1.1C496.9,9.7,496,9.3,495.3,8.6z M496.1,53.9
		c-0.5-0.5-0.8-1.2-0.8-1.9V19.5c0-0.8,0.3-1.4,0.8-1.9c0.5-0.5,1.2-0.8,1.9-0.8c0.8,0,1.4,0.3,1.9,0.8c0.5,0.5,0.7,1.2,0.7,1.9
		v32.4c0,0.8-0.2,1.4-0.7,1.9c-0.5,0.5-1.1,0.8-1.9,0.8C497.2,54.6,496.6,54.4,496.1,53.9z"/>
	<path class="st0" d="M521.5,52.5c-2.9-1.7-5.2-3.9-6.9-6.9c-1.7-2.9-2.5-6.2-2.5-9.8c0-3.6,0.8-6.9,2.5-9.9
		c1.7-2.9,3.9-5.2,6.9-6.9c2.9-1.7,6.2-2.5,9.8-2.5s6.9,0.8,9.8,2.5c2.9,1.7,5.2,4,6.9,6.9c1.7,2.9,2.5,6.2,2.5,9.9
		s-0.8,6.9-2.5,9.8c-1.7,2.9-3.9,5.2-6.9,6.9c-2.9,1.7-6.2,2.5-9.8,2.5S524.4,54.1,521.5,52.5L521.5,52.5z M538.5,48.3
		c2.1-1.2,3.8-3,5-5.1c1.2-2.2,1.8-4.6,1.8-7.4c0-2.8-0.6-5.2-1.8-7.4c-1.2-2.2-2.9-3.9-5-5.1s-4.5-1.9-7.2-1.9
		c-2.6,0-5,0.6-7.1,1.9c-2.1,1.2-3.8,3-5,5.1c-1.2,2.2-1.8,4.7-1.8,7.4c0,2.7,0.6,5.2,1.8,7.4c1.2,2.2,2.9,3.9,5,5.1
		c2.1,1.2,4.5,1.9,7.1,1.9C534,50.1,536.4,49.5,538.5,48.3z"/>
</g>
<path class="st0" d="M128.5,22.2l-13.3-5.5V6.6h-11.6v11.6h10.7l13.8,5.7v7.9l-13.4,6.4h-11.1v11.6h11.6v-9.9l12.9-6.2h11.6V22.2
	H128.5z M113.2,16.1h-7.6V8.6h7.6V16.1z M137.7,31.8h-7.6v-7.6h7.6V31.8z"/>
</svg>
